<?xml version="1.0" standalone="no"?>
<!DOCTYPE svg PUBLIC "-//W3C//DTD SVG 20010904//EN"
 "http://www.w3.org/TR/2001/REC-SVG-20010904/DTD/svg10.dtd">
<svg version="1.0" xmlns="http://www.w3.org/2000/svg"
 width="1415.000000pt" height="1790.000000pt" viewBox="0 0 1415.000000 1790.000000"
 preserveAspectRatio="xMidYMid meet">

<g transform="translate(0.000000,1790.000000) scale(0.100000,-0.100000)"
fill="#000000" stroke="none">
<path d="M7005 17887 c-72 -19 -131 -52 -178 -100 -30 -30 -988 -1673 -3406
-5842 -1850 -3190 -3373 -5820 -3385 -5845 -17 -36 -21 -64 -21 -145 1 -89 4
-106 29 -158 15 -31 49 -79 74 -106 26 -27 1548 -1302 3382 -2833 2358 -1967
3352 -2792 3395 -2813 55 -28 67 -30 165 -30 94 0 111 3 160 27 45 22 3566
2924 6612 5448 223 186 227 189 264 264 46 94 56 189 30 279 -11 37 -273 503
-765 1359 -412 717 -1917 3337 -3345 5823 -2414 4202 -2601 4524 -2655 4576
-94 90 -233 127 -356 96z"/>
</g>
</svg>
