<?xml version="1.0" standalone="no"?>
<!DOCTYPE svg PUBLIC "-//W3C//DTD SVG 20010904//EN" "http://www.w3.org/TR/2001/REC-SVG-20010904/DTD/svg10.dtd">
<svg version="1.0" xmlns="http://www.w3.org/2000/svg" width="1523.000000pt" height="1523.000000pt" viewBox="0 0 1523.000000 1523.000000" preserveAspectRatio="xMidYMid meet">

<g transform="translate(0.000000,1523.000000) scale(0.100000,-0.100000)" fill="#000000" stroke="none">
<path d="M7221 15220 c-845 -48 -1639 -220 -2391 -517 -2037 -805 -3626 -2441 -4375 -4503 -219 -603 -356 -1228 -422 -1925 -22 -240 -26 -1012 -5 -1255 113 -1330 523 -2515 1247 -3610 1153 -1743 3000 -2948 5052 -3294 191 -33 492 -71 693 -88 243 -21 1015 -17 1255 5 456 43 863 113 1260 217 2120 551 3908 1999 4889 3959 445 888 695 1786 783 2811 21 245 24 900 5 1135 -63 783 -213 1470 -473 2158 -769 2033 -2393 3657 -4426 4426 -672 254 -1344 404 -2090 467 -216 18 -790 26 -1002 14z m1054 -413 c325 -34 508 -61 810 -122 2006 -405 3772 -1689 4807 -3495 537 -936 850 -1983 928 -3100 13 -190 13 -757 0 -952 -90 -1320 -526 -2567 -1270 -3633 -678 -972 -1590 -1771 -2635 -2311 -631 -325 -1336 -562 -2039 -684 -1986 -344 -3993 134 -5586 1331 -2091 1572 -3162 4112 -2829 6709 105 824 357 1636 733 2365 703 1361 1834 2479 3196 3160 856 428 1745 671 2730 745 184 13 980 4 1155 -13z"/>
</g>
</svg>
