<?xml version="1.0" standalone="no"?>
<!DOCTYPE svg PUBLIC "-//W3C//DTD SVG 20010904//EN"
 "http://www.w3.org/TR/2001/REC-SVG-20010904/DTD/svg10.dtd">
<svg version="1.0" xmlns="http://www.w3.org/2000/svg"
 width="1523.000000pt" height="1523.000000pt" viewBox="0 0 1523.000000 1523.000000"
 preserveAspectRatio="xMidYMid meet">

<g transform="translate(0.000000,1523.000000) scale(0.100000,-0.100000)"
fill="#000000" stroke="none">
<path d="M7315 15223 c-437 -20 -855 -71 -1255 -154 -1812 -375 -3437 -1415
-4550 -2911 -787 -1056 -1280 -2284 -1444 -3598 -44 -348 -51 -482 -51 -945 0
-446 5 -553 46 -900 225 -1949 1213 -3742 2759 -5006 1102 -901 2481 -1485
3895 -1648 347 -41 454 -46 900 -46 463 0 597 7 945 51 1197 150 2329 574
3323 1247 711 480 1387 1134 1888 1824 1289 1776 1748 3980 1277 6132 -252
1154 -799 2275 -1558 3191 -289 350 -659 721 -1005 1009 -1178 982 -2618 1581
-4145 1725 -316 30 -744 43 -1025 29z m925 -412 c982 -95 1839 -341 2665 -765
881 -452 1650 -1073 2293 -1848 129 -156 317 -411 445 -604 667 -1009 1049
-2107 1167 -3354 18 -180 24 -872 11 -1077 -122 -1881 -931 -3574 -2321 -4861
-1586 -1469 -3754 -2136 -5930 -1826 -1526 217 -2950 933 -4055 2039 -926 925
-1581 2074 -1894 3325 -387 1540 -262 3164 354 4611 640 1503 1815 2781 3264
3548 890 471 1845 744 2876 820 158 12 978 6 1125 -8z"/>
</g>
</svg>
