<?xml version="1.0" encoding="UTF-8" standalone="no"?>
<!DOCTYPE svg PUBLIC "-//W3C//DTD SVG 1.1//EN" "http://www.w3.org/Graphics/SVG/1.1/DTD/svg11.dtd">
<svg width="100%" height="100%" viewBox="0 0 2560 1440" version="1.1" xmlns="http://www.w3.org/2000/svg" xmlns:xlink="http://www.w3.org/1999/xlink" xml:space="preserve" xmlns:serif="http://www.serif.com/" style="fill-rule:evenodd;clip-rule:evenodd;stroke-linecap:round;stroke-linejoin:round;stroke-miterlimit:1.5;">
    <g transform="matrix(1,0,0,1,-13.8623,1.54931)">
        <path d="M-4.863,870.762C-4.863,870.762 145.203,692.616 1021.35,782.373C1021.35,782.373 1135.24,811.451 1168.39,794.02C1168.39,794.02 1331.58,909.087 1456.89,870.928C1456.89,870.928 1876.69,903.387 2039.72,791.602C2039.72,791.602 2296.5,711.195 2475.99,743.921C2502.59,748.772 2527.5,756.109 2549.62,766.562L2579.27,731.421L2576.47,804.948L2576.56,1446.12L2529.61,1456.24C2529.61,1456.24 4.773,1465.11 -8.591,1468.88C-21.955,1472.65 -4.863,870.762 -4.863,870.762Z" style="fill:rgb(189,248,129);"/>
    </g>
    <path d="M-18.726,872.311C-18.726,872.311 2.812,1412.62 -6.556,1440.92C-15.924,1469.21 2570.49,1469.67 2570.49,1469.67" style="fill:none;stroke:black;stroke-width:1px;"/>
    <path d="M-4.863,870.762C-4.863,870.762 -2.679,1417.48 -0.237,1438.46C2.206,1459.43 2534.27,1465.61 2555.43,1451.16C2576.6,1436.71 2585.62,1449.02 2585.62,1449.02C2585.62,1449.02 2598.96,752.062 2597.04,750.4C2595.13,748.739 2562.99,749.016 2562.99,749.016C2562.99,749.016 2564.12,743.857 2561.87,744.771" style="fill:none;stroke:black;stroke-width:1px;"/>
</svg>
